# Blender 3.3.1
# www.blender.org
o Plane
v -0.375000 1.500000 0.000000
v -0.375000 0.000000 0.000000
v 0.375000 1.500000 0.000000
v 0.375000 0.000000 0.000000
v 0.275000 1.400000 0.000000
v -0.275000 1.400000 0.000000
v -0.275000 0.100000 0.000000
v 0.275000 0.100000 0.000000
vn -0.0000 -0.0000 1.0000
vt 0.000000 0.000000
vt 1.000000 0.000000
vt 0.000000 1.000000
vt 1.000000 1.000000
vt 0.066667 0.866667
vt 0.066667 0.133333
vt 0.933333 0.133333
vt 0.933333 0.866667
s 0
f 5/5/1 1/1/1 6/6/1
f 6/6/1 2/2/1 7/7/1
f 8/8/1 3/3/1 5/5/1
f 5/5/1 3/3/1 1/1/1
f 6/6/1 1/1/1 2/2/1
f 8/8/1 4/4/1 3/3/1
o start.001
v 0.165774 1.766773 0.000000
v 0.349568 1.766773 0.000000
v 0.349568 1.718456 0.000000
v 0.287903 1.718456 0.000000
v 0.287903 1.571100 0.000000
v 0.227439 1.571100 0.000000
v 0.227439 1.718456 0.000000
v 0.165774 1.718456 0.000000
v 0.075546 1.766773 0.000000
v 0.136143 1.766773 0.000000
v 0.136143 1.571100 0.000000
v 0.075546 1.571100 0.000000
v -0.152961 1.766773 0.000000
v -0.086358 1.766773 0.000000
v -0.051654 1.706576 0.000000
v -0.018019 1.766773 0.000000
v 0.047917 1.766773 0.000000
v -0.012947 1.672007 0.000000
v 0.053656 1.571100 0.000000
v -0.014282 1.571100 0.000000
v -0.052856 1.633967 0.000000
v -0.091563 1.571100 0.000000
v -0.159101 1.571100 0.000000
v -0.091563 1.673074 0.000000
v -0.337021 1.766773 0.000000
v -0.174984 1.766773 0.000000
v -0.174984 1.724996 0.000000
v -0.276424 1.724996 0.000000
v -0.276424 1.693896 0.000000
v -0.182325 1.693896 0.000000
v -0.182325 1.653988 0.000000
v -0.276424 1.653988 0.000000
v -0.276424 1.615414 0.000000
v -0.172048 1.615414 0.000000
v -0.172048 1.571100 0.000000
v -0.337021 1.571100 0.000000
vn -0.0000 -0.0000 1.0000
vt 0.000000 0.000000
vt 0.142857 0.000000
vt 0.285714 0.000000
vt 0.428571 0.000000
vt 0.571429 0.000000
vt 0.714286 0.000000
vt 0.857143 0.000000
vt 1.000000 0.000000
vt 0.000000 0.000000
vt 0.333333 0.000000
vt 0.666667 0.000000
vt 1.000000 0.000000
vt 0.000000 0.000000
vt 0.090909 0.000000
vt 0.181818 0.000000
vt 0.272727 0.000000
vt 0.363636 0.000000
vt 0.454545 0.000000
vt 0.545455 0.000000
vt 0.636364 0.000000
vt 0.727273 0.000000
vt 0.818182 0.000000
vt 0.909091 0.000000
vt 1.000000 0.000000
vt 0.000000 0.000000
vt 0.090909 0.000000
vt 0.181818 0.000000
vt 0.272727 0.000000
vt 0.363636 0.000000
vt 0.454545 0.000000
vt 0.545455 0.000000
vt 0.636364 0.000000
vt 0.727273 0.000000
vt 0.818182 0.000000
vt 0.909091 0.000000
vt 1.000000 0.000000
s 0
f 16/16/2 10/10/2 9/9/2
f 16/16/2 11/11/2 10/10/2
f 15/15/2 11/11/2 16/16/2
f 14/14/2 12/12/2 15/15/2
f 12/12/2 11/11/2 15/15/2
f 14/14/2 13/13/2 12/12/2
f 20/20/2 18/18/2 17/17/2
f 20/20/2 19/19/2 18/18/2
f 32/32/2 22/22/2 21/21/2
f 32/32/2 23/23/2 22/22/2
f 23/23/2 25/25/2 24/24/2
f 23/23/2 26/26/2 25/25/2
f 32/32/2 26/26/2 23/23/2
f 31/31/2 26/26/2 32/32/2
f 31/31/2 29/29/2 26/26/2
f 29/29/2 27/27/2 26/26/2
f 31/31/2 30/30/2 29/29/2
f 28/28/2 27/27/2 29/29/2
f 44/44/2 36/36/2 33/33/2
f 36/36/2 34/34/2 33/33/2
f 36/36/2 35/35/2 34/34/2
f 44/44/2 37/37/2 36/36/2
f 44/44/2 40/40/2 37/37/2
f 40/40/2 38/38/2 37/37/2
f 40/40/2 39/39/2 38/38/2
f 44/44/2 41/41/2 40/40/2
f 44/44/2 42/42/2 41/41/2
f 44/44/2 43/43/2 42/42/2
